<svg width="300" height="300" viewBox="0 0 300 300" xmlns="http://www.w3.org/2000/svg">
  <defs>
    <!-- Moon masking to create elegant crescent -->
    <mask id="moonMask">
      <rect width="100%" height="100%" fill="white"/>
      <circle cx="130" cy="150" r="60" fill="black"/>
    </mask>

    <!-- Soft glow filter -->
    <filter id="glow" x="-50%" y="-50%" width="200%" height="200%">
      <feGaussianBlur stdDeviation="6" result="blur"/>
      <feMerge>
        <feMergeNode in="blur"/>
        <feMergeNode in="SourceGraphic"/>
      </feMerge>
    </filter>

    <!-- Star sparkle shape -->
    <symbol id="sparkle" viewBox="0 0 20 20">
      <path d="M10 0 L12 8 L20 10 L12 12 L10 20 L8 12 L0 10 L8 8 Z" fill="#FFD700"/>
    </symbol>
  </defs>

  <!-- Background -->
  <rect width="300" height="300" fill="#0A0A0D"/>

  <!-- Glowing crescent moon -->
  <g filter="url(#glow)">
    <circle cx="150" cy="150" r="70" fill="#FFD700" mask="url(#moonMask)"/>
  </g>

  <!-- Soft halo -->
  <circle cx="150" cy="150" r="80" stroke="#FFD700" stroke-opacity="0.05" stroke-width="20" fill="none"/>

  <!-- Stars (dots) -->
  <g fill="#FFFFFF">
    <circle cx="50" cy="60" r="1.5"/>
    <circle cx="230" cy="80" r="1.2"/>
    <circle cx="70" cy="220" r="1"/>
    <circle cx="210" cy="200" r="1.4"/>
    <circle cx="40" cy="160" r="1.3"/>
    <circle cx="250" cy="130" r="1.2"/>
    <circle cx="120" cy="40" r="1.1"/>
  </g>

  <!-- Sparkling stars -->
  <use href="#sparkle" x="190" y="50" width="10" height="10"/>
  <use href="#sparkle" x="220" y="180" width="12" height="12" transform="rotate(15 226 186)"/>
</svg>
